<!DOCTYPE svg PUBLIC "-//W3C//DTD SVG 1.1//EN" "http://www.w3.org/Graphics/SVG/1.1/DTD/svg11.dtd">
<!-- Uploaded to: SVG Repo, www.svgrepo.com, Transformed by: SVG Repo Mixer Tools -->
<svg fill="#CCCCCC" version="1.1" id="Capa_1" xmlns="http://www.w3.org/2000/svg" xmlns:xlink="http://www.w3.org/1999/xlink" width="64px" height="64px" viewBox="0 0 102.563 102.563" xml:space="preserve" stroke="#CCCCCC" stroke-width="1.5384449999999998">
<g id="SVGRepo_bgCarrier" stroke-width="0"/>
<g id="SVGRepo_tracerCarrier" stroke-linecap="round" stroke-linejoin="round"/>
<g id="SVGRepo_iconCarrier"> <g> <g> <rect x="10.797" y="34.291" width="2.965" height="1.694"/> <rect x="14.715" y="34.291" width="35.794" height="1.694"/> <rect x="10.797" y="42.458" width="2.965" height="1.694"/> <rect x="14.715" y="42.458" width="35.794" height="1.694"/> <rect x="14.715" y="51.071" width="35.794" height="1.694"/> <rect x="10.797" y="51.071" width="2.965" height="1.694"/> <rect x="10.797" y="60.588" width="2.965" height="1.693"/> <rect x="14.715" y="60.588" width="35.794" height="1.693"/> <path d="M97.852,80.042c-0.422-0.547-8.055-10.288-19.114-15.149V2.965C78.737,1.33,77.407,0,75.772,0H17.317 c-1.635,0-2.965,1.33-2.965,2.965v13.608H5.879c-1.635,0-2.965,1.331-2.965,2.966v73.705c0,1.635,1.33,2.965,2.965,2.965h42 c5.171,3.459,11.617,6.354,18.714,6.354c17.271,0,30.695-17.134,31.258-17.862l1.798-2.329L97.852,80.042z M72.788,3.43 c1.068,0,1.935,0.866,1.935,1.935S73.857,7.3,72.788,7.3s-1.937-0.866-1.937-1.935S71.721,3.43,72.788,3.43z M64.264,3.43 c1.068,0,1.937,0.866,1.937,1.935S65.333,7.3,64.264,7.3c-1.068,0-1.934-0.866-1.934-1.935S63.196,3.43,64.264,3.43z M55.795,3.43 c1.067,0,1.934,0.866,1.934,1.935S56.863,7.3,55.795,7.3c-1.07,0-1.937-0.866-1.937-1.935S54.723,3.43,55.795,3.43z M16.893,11.013h58.879c0.147,0,0.288-0.025,0.424-0.061v52.94c-2.799-0.98-5.781-1.607-8.896-1.691V19.539 c0-1.635-1.332-2.966-2.967-2.966H16.893V11.013z M63.284,21.939c0,1.068-0.864,1.935-1.935,1.935 c-1.068,0-1.934-0.866-1.934-1.935c0-1.069,0.865-1.935,1.934-1.935C62.42,20.004,63.284,20.871,63.284,21.939z M54.762,21.939 c0,1.068-0.867,1.935-1.934,1.935c-1.07,0-1.936-0.866-1.936-1.935c0-1.069,0.865-1.935,1.936-1.935 C53.895,20.005,54.762,20.871,54.762,21.939z M46.29,21.939c0,1.068-0.865,1.935-1.934,1.935c-1.069,0-1.934-0.866-1.934-1.935 c0-1.069,0.865-1.935,1.934-1.935C45.425,20.004,46.29,20.871,46.29,21.939z M5.88,93.668c-0.234,0-0.424-0.189-0.424-0.424 V27.587h58.88c0.147,0,0.288-0.024,0.424-0.06V62.25C48.382,63.389,35.88,79.338,35.337,80.042l-1.797,2.329l1.797,2.329 c0.275,0.358,3.658,4.67,9.068,8.968H5.88z M66.735,98.567c-15.596,0-28.238-16.379-28.238-16.379s12.643-16.38,28.238-16.38 c15.598,0,28.239,16.38,28.239,16.38S82.333,98.567,66.735,98.567z"/> <path d="M66.735,73.654c-4.713,0-8.533,3.82-8.533,8.534c0,4.713,3.82,8.534,8.533,8.534c4.715,0,8.534-3.821,8.534-8.534 C75.27,77.475,71.45,73.654,66.735,73.654z M66.735,81.615v-6.564c3.627,0,6.565,2.938,6.565,6.564H66.735z"/> </g> </g> </g>
</svg>